<svg width="32" height="40" viewBox="0 0 32 40" fill="none" xmlns="http://www.w3.org/2000/svg">
<path fill-rule="evenodd" clip-rule="evenodd" d="M27.5016 12.4342V12.4066L26.7977 12.7604L26.299 13.0111L26.7907 12.7752L27.5016 12.4342Z" fill="#3E4161"/>
<path fill-rule="evenodd" clip-rule="evenodd" d="M18.4946 7.53418C18.8345 7.87407 19.0044 8.3839 19.0044 9.06367V13.5394L20.1602 11.7708L24.7239 17.155L26.7907 12.7752L27.5016 12.4342V12.4066L26.7977 12.7604L26.8097 12.735L25.1338 11.7521L27.5016 10.7449V8.72379C27.5016 5.85362 26.6519 3.68212 24.9525 2.20927C23.2908 0.736423 20.9305 0 17.8715 0H4.10602V30.6535L9.57889 19.5767L12.5179 22.9246L12.6032 23.0217V22.7591V6.9677H16.6819C17.5882 6.9677 18.1925 7.15653 18.4946 7.53418ZM26.7977 12.7604L26.299 13.0111L26.7907 12.7752L26.7977 12.7604Z" fill="#3E4161"/>
<path fill-rule="evenodd" clip-rule="evenodd" d="M27.5016 12.4342V12.4066L26.7977 12.7604L26.299 13.0111L26.7907 12.7752L27.5016 12.4342Z" fill="#504D85"/>
<path fill-rule="evenodd" clip-rule="evenodd" d="M26.5862 13.2087L26.7907 12.7752L27.5016 12.4342V12.4066L26.7977 12.7604L26.7907 12.7752L26.299 13.0111L26.5862 13.2087ZM12.6032 23.0217V22.7591L12.5179 22.9246L12.6032 23.0217ZM4.10602 32.5564V39.257H18.3813C24.4615 39.257 27.5016 36.1792 27.5016 30.0234V19.4196L24.9521 22.8743L23.3817 21.3639L20.3981 18.4942L19.0044 20.2036V29.3437C19.0044 31.0809 18.2302 31.9495 16.6819 31.9495H12.6032V27.6135L10.9985 25.8747L9.64299 24.4058L4.10602 32.5564Z" fill="#504D85"/>
<path fill-rule="evenodd" clip-rule="evenodd" d="M0.956105 35.8612L1.09248 35.6589L9.77959 21.052L12.9219 24.6126L20.3614 13.2279L24.6149 17.7355L27.7018 12.8082L26.2992 11.843L31.4263 9.38357L31.4481 9.37421L31.4809 8.50927L24.842 11.7521L26.5179 13.0269L24.7241 15.9869L20.1604 10.6027L12.7209 21.9875L9.57909 18.4086L0.956105 35.8612Z" fill="#8C93D6"/>
<path d="M12.7946 27.8206L20.3983 18.4941L24.9523 22.8742L29.906 16.1617L31.1538 17.2636L31.1898 16.3758L29.6691 15.2692L24.7336 21.6903L20.471 17.3284L12.7946 27.8206Z" fill="#3E4161"/>
</svg>
