<svg width="46" height="49" viewBox="0 0 46 49" fill="none" xmlns="http://www.w3.org/2000/svg">
<path fill-rule="evenodd" clip-rule="evenodd" d="M39.6346 26.9049H32.7222V13.227C32.7222 11.6237 32.6227 10.4714 32.3741 9.71984C32.0259 8.41718 31.28 7.61554 30.0865 7.36503V6.46319H39.5849V26.9049H39.6346ZM19.3449 33.2679V14.0286C19.3449 13.0266 19.0962 12.2751 18.5492 11.7239C18.1514 11.3231 17.5546 11.1227 16.8086 11.1227C15.3168 11.1227 14.1232 11.8742 13.3276 13.4274V26.9049H6.41513V13.227C6.41513 11.6237 6.31568 10.4714 6.11676 9.71984C5.71892 8.46728 4.97297 7.66564 3.82919 7.36503V6.46319H12.6314L12.88 9.41922C14.1232 7.11452 16.3113 5.91207 19.2951 5.91207C23.92 5.91207 26.2076 8.56748 26.2076 13.9284V33.2679H32.2249L27.5005 37.0256L22.7762 40.7832L18.0519 37.0256L13.3276 33.2679H19.3449ZM46 0V30.6125L22.8259 49L0 30.9131C0 20.592 0 10.3211 0 0C15.4659 0 30.5341 0 46 0Z" fill="#1D2038"/>
</svg>
