<svg width="25" height="24" viewBox="0 0 25 24" fill="none" xmlns="http://www.w3.org/2000/svg">
<path d="M15.6 19.3701L16.6 21.1101C15.64 21.5501 14.59 21.84 13.5 21.9501V19.93C14.24 19.84 14.94 19.6501 15.6 19.3701ZM4.57005 13H2.55005C2.66005 14.1 2.95005 15.14 3.39005 16.1L5.13005 15.1C4.85005 14.44 4.66005 13.74 4.57005 13ZM15.6 4.63005L16.6 2.89005C15.64 2.45005 14.6 2.16005 13.5 2.05005V4.07005C14.24 4.16005 14.94 4.35005 15.6 4.63005ZM20.43 11H22.4501C22.34 9.90005 22.0501 8.86005 21.6101 7.90005L19.8701 8.90005C20.1501 9.56005 20.34 10.26 20.43 11ZM9.40005 19.3701L8.40005 21.1101C9.36005 21.5501 10.41 21.84 11.5 21.9501V19.93C10.76 19.84 10.06 19.6501 9.40005 19.3701ZM11.5 4.07005V2.05005C10.4 2.16005 9.36005 2.45005 8.40005 2.89005L9.40005 4.63005C10.06 4.35005 10.76 4.16005 11.5 4.07005ZM18.8601 7.17005L20.6 6.16005C19.9701 5.29005 19.2 4.52005 18.33 3.89005L17.32 5.63005C17.91 6.08005 18.4201 6.59005 18.8601 7.17005ZM5.13005 8.90005L3.39005 7.90005C2.95005 8.86005 2.66005 9.90005 2.55005 11H4.57005C4.66005 10.26 4.85005 9.56005 5.13005 8.90005ZM20.43 13C20.34 13.74 20.1501 14.44 19.8701 15.1L21.6101 16.1C22.0501 15.14 22.34 14.09 22.4501 13H20.43ZM17.33 18.3601L18.34 20.1C19.21 19.4701 19.9801 18.7 20.6101 17.83L18.8701 16.82C18.4201 17.41 17.91 17.9201 17.33 18.3601ZM7.67005 5.64005L6.67005 3.89005C5.79005 4.53005 5.03005 5.29005 4.40005 6.17005L6.14005 7.18005C6.58005 6.59005 7.09005 6.08005 7.67005 5.64005ZM6.14005 16.83L4.40005 17.83C5.03005 18.7 5.80005 19.4701 6.67005 20.1L7.68005 18.3601C7.09005 17.9201 6.58005 17.41 6.14005 16.83ZM12.5 7.00005C11.95 7.00005 11.5 7.45005 11.5 8.00005V11.59C11.5 12.12 11.71 12.63 12.09 13L15.09 16C15.48 16.39 16.11 16.39 16.5 16C16.89 15.61 16.89 14.98 16.5 14.59L13.5 11.59V8.00005C13.5 7.45005 13.05 7.00005 12.5 7.00005Z" fill="#8C93D6"/>
</svg>
