<svg width="25" height="24" viewBox="0 0 25 24" fill="none" xmlns="http://www.w3.org/2000/svg">
<path d="M10.5 16V8C10.5 6.9 11.39 6 12.5 6H21.5V5C21.5 3.9 20.6 3 19.5 3H5.5C4.39 3 3.5 3.9 3.5 5V19C3.5 20.1 4.39 21 5.5 21H19.5C20.6 21 21.5 20.1 21.5 19V18H12.5C11.39 18 10.5 17.1 10.5 16ZM13.5 8C12.95 8 12.5 8.45 12.5 9V15C12.5 15.55 12.95 16 13.5 16H22.5V8H13.5ZM16.5 13.5C15.67 13.5 15 12.83 15 12C15 11.17 15.67 10.5 16.5 10.5C17.33 10.5 18 11.17 18 12C18 12.83 17.33 13.5 16.5 13.5Z" fill="#F5A623"/>
</svg>
