<svg width="20" height="20" viewBox="0 0 20 20" fill="none" xmlns="http://www.w3.org/2000/svg">
<path d="M14.4167 5.25008C14.0917 4.92508 13.5667 4.92508 13.2417 5.25008L8.54166 9.95007L9.71666 11.1251L14.4167 6.41674C14.7333 6.10007 14.7333 5.56674 14.4167 5.25008ZM17.95 5.24174L9.71666 13.4751L6.81666 10.5834C6.49166 10.2584 5.96666 10.2584 5.64166 10.5834C5.31666 10.9084 5.31666 11.4334 5.64166 11.7584L9.12499 15.2417C9.44999 15.5667 9.97499 15.5667 10.3 15.2417L19.125 6.42507C19.45 6.10007 19.45 5.57508 19.125 5.25008H19.1167C18.8 4.91674 18.275 4.91674 17.95 5.24174ZM0.933325 11.7667L4.41666 15.2501C4.74166 15.5751 5.26666 15.5751 5.59166 15.2501L6.17499 14.6667L2.10833 10.5834C1.78333 10.2584 1.25833 10.2584 0.933325 10.5834C0.608325 10.9084 0.608325 11.4417 0.933325 11.7667Z" fill="#8C93D6"/>
</svg>
