<svg width="54" height="54" viewBox="0 0 54 54" fill="none" xmlns="http://www.w3.org/2000/svg">
<rect width="54" height="54" rx="10" fill="#F8F9FC"/>
<rect width="54" height="54" rx="10" fill="#F56F23"/>
<rect width="54" height="54" rx="10" fill="url(#paint0_linear)" fill-opacity="0.75" style="mix-blend-mode:color-dodge"/>
<path fill-rule="evenodd" clip-rule="evenodd" d="M36.7697 24.452C37.1777 21.7201 35.0977 20.2515 32.2536 19.2719L33.1762 15.5712L30.923 15.0098L30.0248 18.613C29.4332 18.4654 28.825 18.3262 28.2207 18.1882L29.1253 14.5614L26.874 14L25.9507 17.6993C25.4606 17.5877 24.9794 17.4774 24.5123 17.3612L24.5149 17.3497L21.4084 16.574L20.8091 18.9799C20.8091 18.9799 22.4804 19.363 22.4452 19.3867C23.3575 19.6145 23.523 20.2182 23.4948 20.6968L22.4439 24.9126C22.5068 24.9287 22.5882 24.9518 22.6781 24.9877L22.4407 24.9287L20.967 30.8344C20.8553 31.1116 20.5724 31.5273 19.9347 31.3695C19.9571 31.4022 18.2973 30.9608 18.2973 30.9608L17.1791 33.5399L20.1111 34.2707C20.442 34.3536 20.7689 34.4389 21.0922 34.5233L21.0924 34.5233L21.0934 34.5236C21.3025 34.5781 21.5101 34.6323 21.7163 34.6852L20.7841 38.4288L23.0341 38.9902L23.958 35.287C24.572 35.4538 25.1687 35.6077 25.7525 35.7527L24.8325 39.4386L27.0851 40L28.0173 36.2641C31.8584 36.991 34.7474 36.6978 35.962 33.2243C36.9416 30.427 35.9138 28.8134 33.8929 27.7606C35.3646 27.4199 36.4733 26.4518 36.7691 24.452H36.7697ZM31.6223 31.6691C30.9828 34.2365 26.9634 33.1742 25.1259 32.6886C24.9614 32.6451 24.8143 32.6062 24.6888 32.575L25.9257 27.6162C26.0792 27.6545 26.2667 27.6966 26.4791 27.7443C28.38 28.1708 32.2757 29.045 31.623 31.6691H31.6223ZM26.8612 25.4432C28.3944 25.8522 31.7363 26.7438 32.3185 24.4115C32.9137 22.0255 29.664 21.3064 28.0769 20.9552C27.8985 20.9157 27.7411 20.8809 27.6125 20.8488L26.491 25.3463C26.5971 25.3727 26.7217 25.406 26.8612 25.4432Z" fill="white"/>
<defs>
<linearGradient id="paint0_linear" x1="-24" y1="-11" x2="60" y2="82" gradientUnits="userSpaceOnUse">
<stop stop-color="white"/>
<stop offset="1" stop-color="white" stop-opacity="0"/>
</linearGradient>
</defs>
</svg>
