<svg width="25" height="24" viewBox="0 0 25 24" fill="none" xmlns="http://www.w3.org/2000/svg">
<path d="M16.2999 10.53C16.0099 10.24 15.5299 10.24 15.2399 10.53L10.8899 14.88L9.29993 13.29C9.00993 13 8.52993 13 8.23993 13.29C7.94993 13.58 7.94993 14.06 8.23993 14.35L10.1799 16.29C10.5699 16.68 11.1999 16.68 11.5899 16.29L16.2899 11.59C16.5899 11.3 16.5899 10.82 16.2999 10.53ZM19.2999 3H18.2999V2C18.2999 1.45 17.8499 1 17.2999 1C16.7499 1 16.2999 1.45 16.2999 2V3H8.29993V2C8.29993 1.45 7.84993 1 7.29993 1C6.74993 1 6.29993 1.45 6.29993 2V3H5.29993C4.18993 3 3.30993 3.9 3.30993 5L3.29993 19C3.29993 20.1 4.18993 21 5.29993 21H19.2999C20.3999 21 21.2999 20.1 21.2999 19V5C21.2999 3.9 20.3999 3 19.2999 3ZM18.2999 19H6.29993C5.74993 19 5.29993 18.55 5.29993 18V8H19.2999V18C19.2999 18.55 18.8499 19 18.2999 19Z" fill="#8C93D6"/>
</svg>
