<svg width="129" height="111" viewBox="0 0 129 111" fill="none" xmlns="http://www.w3.org/2000/svg">
<path d="M4.24996 42.5416C-0.172956 42.5416 -3.79171 46.1604 -3.79171 50.5833C-3.79171 55.0062 -0.172956 58.625 4.24996 58.625C8.67288 58.625 12.2916 55.0062 12.2916 50.5833C12.2916 46.1604 8.67288 42.5416 4.24996 42.5416ZM4.24996 74.7083C-0.172956 74.7083 -3.79171 78.327 -3.79171 82.75C-3.79171 87.1729 -0.172956 90.7916 4.24996 90.7916C8.67288 90.7916 12.2916 87.1729 12.2916 82.75C12.2916 78.327 8.67288 74.7083 4.24996 74.7083ZM4.24996 10.375C-0.172956 10.375 -3.79171 13.9937 -3.79171 18.4166C-3.79171 22.8395 -0.172956 26.4583 4.24996 26.4583C8.67288 26.4583 12.2916 22.8395 12.2916 18.4166C12.2916 13.9937 8.67288 10.375 4.24996 10.375ZM-19.875 14.3958C-22.1267 14.3958 -23.8959 16.165 -23.8959 18.4166C-23.8959 20.6683 -22.1267 22.4375 -19.875 22.4375C-17.6234 22.4375 -15.8542 20.6683 -15.8542 18.4166C-15.8542 16.165 -17.6234 14.3958 -19.875 14.3958ZM4.24996 -21.7917C-0.172956 -21.7917 -3.79171 -18.173 -3.79171 -13.75C-3.79171 -9.32713 -0.172956 -5.70838 4.24996 -5.70838C8.67288 -5.70838 12.2916 -9.32713 12.2916 -13.75C12.2916 -18.173 8.67288 -21.7917 4.24996 -21.7917ZM124.875 22.4375C127.127 22.4375 128.896 20.6683 128.896 18.4166C128.896 16.165 127.127 14.3958 124.875 14.3958C122.623 14.3958 120.854 16.165 120.854 18.4166C120.854 20.6683 122.623 22.4375 124.875 22.4375ZM68.5833 -5.70838C73.0062 -5.70838 76.625 -9.32713 76.625 -13.75C76.625 -18.173 73.0062 -21.7917 68.5833 -21.7917C64.1604 -21.7917 60.5416 -18.173 60.5416 -13.75C60.5416 -9.32713 64.1604 -5.70838 68.5833 -5.70838ZM68.5833 -33.8542C70.835 -33.8542 72.6041 -35.6234 72.6041 -37.875C72.6041 -40.1267 70.835 -41.8959 68.5833 -41.8959C66.3316 -41.8959 64.5625 -40.1267 64.5625 -37.875C64.5625 -35.6234 66.3316 -33.8542 68.5833 -33.8542ZM-19.875 46.5625C-22.1267 46.5625 -23.8959 48.3316 -23.8959 50.5833C-23.8959 52.835 -22.1267 54.6041 -19.875 54.6041C-17.6234 54.6041 -15.8542 52.835 -15.8542 50.5833C-15.8542 48.3316 -17.6234 46.5625 -19.875 46.5625ZM36.4166 102.854C34.165 102.854 32.3958 104.623 32.3958 106.875C32.3958 109.127 34.165 110.896 36.4166 110.896C38.6683 110.896 40.4375 109.127 40.4375 106.875C40.4375 104.623 38.6683 102.854 36.4166 102.854ZM36.4166 -33.8542C38.6683 -33.8542 40.4375 -35.6234 40.4375 -37.875C40.4375 -40.1267 38.6683 -41.8959 36.4166 -41.8959C34.165 -41.8959 32.3958 -40.1267 32.3958 -37.875C32.3958 -35.6234 34.165 -33.8542 36.4166 -33.8542ZM36.4166 -5.70838C40.8395 -5.70838 44.4583 -9.32713 44.4583 -13.75C44.4583 -18.173 40.8395 -21.7917 36.4166 -21.7917C31.9937 -21.7917 28.375 -18.173 28.375 -13.75C28.375 -9.32713 31.9937 -5.70838 36.4166 -5.70838ZM36.4166 38.5208C29.742 38.5208 24.3541 43.9087 24.3541 50.5833C24.3541 57.2579 29.742 62.6458 36.4166 62.6458C43.0912 62.6458 48.4791 57.2579 48.4791 50.5833C48.4791 43.9087 43.0912 38.5208 36.4166 38.5208ZM100.75 42.5416C96.327 42.5416 92.7083 46.1604 92.7083 50.5833C92.7083 55.0062 96.327 58.625 100.75 58.625C105.173 58.625 108.792 55.0062 108.792 50.5833C108.792 46.1604 105.173 42.5416 100.75 42.5416ZM100.75 74.7083C96.327 74.7083 92.7083 78.327 92.7083 82.75C92.7083 87.1729 96.327 90.7916 100.75 90.7916C105.173 90.7916 108.792 87.1729 108.792 82.75C108.792 78.327 105.173 74.7083 100.75 74.7083ZM100.75 10.375C96.327 10.375 92.7083 13.9937 92.7083 18.4166C92.7083 22.8395 96.327 26.4583 100.75 26.4583C105.173 26.4583 108.792 22.8395 108.792 18.4166C108.792 13.9937 105.173 10.375 100.75 10.375ZM100.75 -21.7917C96.327 -21.7917 92.7083 -18.173 92.7083 -13.75C92.7083 -9.32713 96.327 -5.70838 100.75 -5.70838C105.173 -5.70838 108.792 -9.32713 108.792 -13.75C108.792 -18.173 105.173 -21.7917 100.75 -21.7917ZM124.875 46.5625C122.623 46.5625 120.854 48.3316 120.854 50.5833C120.854 52.835 122.623 54.6041 124.875 54.6041C127.127 54.6041 128.896 52.835 128.896 50.5833C128.896 48.3316 127.127 46.5625 124.875 46.5625ZM68.5833 74.7083C64.1604 74.7083 60.5416 78.327 60.5416 82.75C60.5416 87.1729 64.1604 90.7916 68.5833 90.7916C73.0062 90.7916 76.625 87.1729 76.625 82.75C76.625 78.327 73.0062 74.7083 68.5833 74.7083ZM68.5833 102.854C66.3316 102.854 64.5625 104.623 64.5625 106.875C64.5625 109.127 66.3316 110.896 68.5833 110.896C70.835 110.896 72.6041 109.127 72.6041 106.875C72.6041 104.623 70.835 102.854 68.5833 102.854ZM36.4166 6.35412C29.742 6.35412 24.3541 11.742 24.3541 18.4166C24.3541 25.0912 29.742 30.4791 36.4166 30.4791C43.0912 30.4791 48.4791 25.0912 48.4791 18.4166C48.4791 11.742 43.0912 6.35412 36.4166 6.35412ZM36.4166 74.7083C31.9937 74.7083 28.375 78.327 28.375 82.75C28.375 87.1729 31.9937 90.7916 36.4166 90.7916C40.8395 90.7916 44.4583 87.1729 44.4583 82.75C44.4583 78.327 40.8395 74.7083 36.4166 74.7083ZM68.5833 38.5208C61.9087 38.5208 56.5208 43.9087 56.5208 50.5833C56.5208 57.2579 61.9087 62.6458 68.5833 62.6458C75.2579 62.6458 80.6458 57.2579 80.6458 50.5833C80.6458 43.9087 75.2579 38.5208 68.5833 38.5208ZM68.5833 6.35412C61.9087 6.35412 56.5208 11.742 56.5208 18.4166C56.5208 25.0912 61.9087 30.4791 68.5833 30.4791C75.2579 30.4791 80.6458 25.0912 80.6458 18.4166C80.6458 11.742 75.2579 6.35412 68.5833 6.35412Z" fill="url(#paint0_linear)"/>
<defs>
<linearGradient id="paint0_linear" x1="395" y1="-229" x2="-133" y2="-54" gradientUnits="userSpaceOnUse">
<stop stop-color="#6F6C99"/>
<stop offset="1" stop-color="#8387C4"/>
</linearGradient>
</defs>
</svg>
