<svg width="24" height="25" viewBox="0 0 24 25" fill="none" xmlns="http://www.w3.org/2000/svg">
<path d="M18.3 6.20973C17.91 5.81973 17.28 5.81973 16.89 6.20973L12 11.0897L7.11 6.19973C6.72 5.80973 6.09 5.80973 5.7 6.19973C5.31 6.58973 5.31 7.21973 5.7 7.60973L10.59 12.4997L5.7 17.3897C5.31 17.7797 5.31 18.4097 5.7 18.7997C6.09 19.1897 6.72 19.1897 7.11 18.7997L12 13.9097L16.89 18.7997C17.28 19.1897 17.91 19.1897 18.3 18.7997C18.69 18.4097 18.69 17.7797 18.3 17.3897L13.41 12.4997L18.3 7.60973C18.68 7.22973 18.68 6.58973 18.3 6.20973Z" fill="#C5C9EA"/>
</svg>
