<svg width="25" height="24" viewBox="0 0 25 24" fill="none" xmlns="http://www.w3.org/2000/svg">
<path d="M16.9234 9H15.3334V4C15.3334 3.45 14.8834 3 14.3334 3H10.3334C9.78337 3 9.33337 3.45 9.33337 4V9H7.74337C6.85337 9 6.40337 10.08 7.03337 10.71L11.6234 15.3C12.0134 15.69 12.6434 15.69 13.0334 15.3L17.6234 10.71C18.2534 10.08 17.8134 9 16.9234 9ZM5.33337 19C5.33337 19.55 5.78337 20 6.33337 20H18.3334C18.8834 20 19.3334 19.55 19.3334 19C19.3334 18.45 18.8834 18 18.3334 18H6.33337C5.78337 18 5.33337 18.45 5.33337 19Z" fill="#C5C9EA"/>
</svg>
