<svg width="54" height="54" viewBox="0 0 54 54" fill="none" xmlns="http://www.w3.org/2000/svg">
<rect width="54" height="54" rx="10" fill="#F8F9FC"/>
<rect width="54" height="54" rx="10" fill="#83939B"/>
<rect width="54" height="54" rx="10" fill="url(#paint0_linear)" fill-opacity="0.75" style="mix-blend-mode:color-dodge"/>
<g opacity="0.8">
<path d="M26.9976 14L26.8303 14.5687V31.0716L26.9976 31.2386L34.6581 26.7105L26.9976 14Z" fill="white"/>
<path d="M26.9977 14L19.3372 26.7105L26.9977 31.2387V23.2287V14Z" fill="white"/>
<path d="M26.9977 33.7309L26.9034 33.8458V39.7245L26.9977 39.9999L34.6628 29.2051L26.9977 33.7309Z" fill="white"/>
<path d="M26.9977 39.9999V33.7309L19.3372 29.2051L26.9977 39.9999Z" fill="white"/>
<path d="M26.9976 31.2386L34.6579 26.7106L26.9976 23.2288V31.2386Z" fill="white"/>
<path d="M19.3372 26.7106L26.9975 31.2387V23.2288L19.3372 26.7106Z" fill="white"/>
</g>
<defs>
<linearGradient id="paint0_linear" x1="-24" y1="-11" x2="60" y2="82" gradientUnits="userSpaceOnUse">
<stop stop-color="white"/>
<stop offset="1" stop-color="white" stop-opacity="0"/>
</linearGradient>
</defs>
</svg>
