<svg width="54" height="54" viewBox="0 0 54 54" fill="none" xmlns="http://www.w3.org/2000/svg">
<rect width="54" height="54" rx="10" fill="#F8F9FC"/>
<rect width="54" height="54" rx="10" fill="#84BDB3"/>
<rect width="54" height="54" rx="10" fill="url(#paint0_linear)" fill-opacity="0.75" style="mix-blend-mode:color-dodge"/>
<path d="M36.3255 38.7084L35.679 35.7725C35.6423 35.5999 35.55 35.4706 35.4019 35.3848C35.2418 35.2984 35.0819 35.2865 34.922 35.348L34.8295 35.3848L34.6077 35.4401C34.509 35.4644 34.3952 35.4923 34.266 35.523C34.1367 35.5538 33.9862 35.5844 33.8135 35.6153C33.6418 35.6461 33.4594 35.674 33.269 35.6986C33.0783 35.7227 32.8724 35.7446 32.6506 35.7632C32.4288 35.7814 32.2074 35.7907 31.9856 35.7907C30.4221 35.7907 29.0155 35.3692 27.766 34.5259C26.5164 33.6823 25.5962 32.5405 25.0054 31.1004H32.1515C32.2872 31.1004 32.4103 31.0544 32.5207 30.9618C32.6318 30.8697 32.6996 30.7559 32.7237 30.6201L33.1669 28.5518C33.204 28.3677 33.1669 28.2013 33.0564 28.0534C32.9333 27.9055 32.7791 27.8315 32.5947 27.8315H24.1191C24.0822 26.9945 24.0822 26.3482 24.1191 25.8926H33.1305C33.4632 25.8926 33.66 25.7327 33.7215 25.4126L34.1647 23.3074C34.2014 23.1351 34.1589 22.9753 34.0354 22.8274C33.925 22.6797 33.7711 22.6055 33.5741 22.6055H24.9317C25.5472 21.2267 26.4705 20.1434 27.7017 19.3555C28.9328 18.5674 30.3239 18.1735 31.875 18.1735C31.9245 18.149 32.1059 18.1552 32.4196 18.192C32.7335 18.2288 32.9123 18.2443 32.9552 18.2381C32.9977 18.232 33.1584 18.2506 33.4351 18.2934C33.7122 18.3365 33.8508 18.3581 33.8508 18.3581L34.1739 18.4226C34.2665 18.4413 34.3372 18.4564 34.3864 18.4689L34.4603 18.4872C34.6202 18.5367 34.7676 18.5212 34.9035 18.4413C35.039 18.361 35.1253 18.2411 35.1623 18.0811L35.9564 15.145C35.9932 14.9849 35.9745 14.8372 35.9011 14.7018C35.7902 14.5538 35.6669 14.4615 35.5315 14.4247C34.399 14.1416 33.2044 14 31.949 14C29.191 14 26.7261 14.7881 24.5531 16.3637C22.3802 17.9394 20.8813 20.0201 20.0564 22.6053H18.2469C18.0745 22.6053 17.933 22.6606 17.8222 22.7714C17.7116 22.882 17.6561 23.0237 17.6561 23.1961V25.3013C17.6561 25.4736 17.7114 25.6153 17.8222 25.7258C17.9331 25.8367 18.0747 25.8919 18.2469 25.8919H19.4842C19.447 26.483 19.4411 27.1289 19.4656 27.831H18.2469C18.0869 27.831 17.9484 27.8894 17.8315 28.0064C17.7146 28.1232 17.6561 28.2618 17.6561 28.4216V30.5084C17.6561 30.6687 17.7146 30.8068 17.8315 30.9241C17.9485 31.041 18.0869 31.099 18.2469 31.099H20.0013C20.7768 33.8197 22.2419 35.9836 24.3963 37.59C26.5509 39.197 29.0684 40 31.949 40C32.1831 40 32.42 39.9942 32.6601 39.9814C32.9007 39.9691 33.125 39.9505 33.3343 39.9261C33.5435 39.9018 33.7498 39.8743 33.953 39.8433C34.1559 39.8124 34.3407 39.7821 34.5068 39.7508C34.673 39.7203 34.83 39.6895 34.9776 39.6589C35.1254 39.6278 35.2578 39.5943 35.3749 39.5571C35.4918 39.5207 35.5898 39.4927 35.6701 39.4746C35.7503 39.456 35.8149 39.4341 35.8638 39.41L35.9564 39.3914C36.0919 39.3422 36.1965 39.2528 36.2702 39.1233C36.3442 38.9948 36.3623 38.8561 36.3255 38.7084Z" fill="white"/>
<defs>
<linearGradient id="paint0_linear" x1="-24" y1="-11" x2="60" y2="82" gradientUnits="userSpaceOnUse">
<stop stop-color="white"/>
<stop offset="1" stop-color="white" stop-opacity="0"/>
</linearGradient>
</defs>
</svg>
