<svg width="54" height="54" viewBox="0 0 54 54" fill="none" xmlns="http://www.w3.org/2000/svg">
<rect width="54" height="54" rx="10" fill="#F8F9FC"/>
<rect width="54" height="54" rx="10" fill="#E2BC59"/>
<rect width="54" height="54" rx="10" fill="url(#paint0_linear)" fill-opacity="0.75" style="mix-blend-mode:color-dodge"/>
<path d="M39.752 16.1367L38.3105 21.2695C37.373 20.7656 36.4004 20.3906 35.3926 20.1445C34.3965 19.8867 33.3535 19.7578 32.2637 19.7578C28.959 19.7578 26.3691 20.6016 24.4941 22.2891C22.6191 23.9766 21.6816 26.291 21.6816 29.2324C21.6816 31.377 22.2559 33.0586 23.4043 34.2773C24.5527 35.4961 26.1348 36.1055 28.1504 36.1055C28.5605 36.1055 28.9824 36.0762 29.416 36.0176C29.8496 35.9473 30.3184 35.8477 30.8223 35.7188L31.9473 30.498H27.834L28.8008 25.9629H39.207L36.2539 39.7793C35.0117 40.1895 33.6875 40.4941 32.2812 40.6934C30.875 40.9043 29.334 41.0098 27.6582 41.0098C23.6152 41.0098 20.4805 39.9727 18.2539 37.8984C16.0273 35.8242 14.9141 32.9121 14.9141 29.1621C14.9141 27.2637 15.2246 25.4941 15.8457 23.8535C16.4785 22.2012 17.4043 20.7539 18.623 19.5117C20.1465 17.918 21.9336 16.752 23.9844 16.0137C26.0352 15.2754 28.5312 14.9062 31.4727 14.9062C32.9844 14.9062 34.4258 15.0059 35.7969 15.2051C37.168 15.4043 38.4863 15.7148 39.752 16.1367Z" fill="white"/>
<defs>
<linearGradient id="paint0_linear" x1="-24" y1="-11" x2="60" y2="82" gradientUnits="userSpaceOnUse">
<stop stop-color="white"/>
<stop offset="1" stop-color="white" stop-opacity="0"/>
</linearGradient>
</defs>
</svg>
