<svg width="25" height="24" viewBox="0 0 25 24" fill="none" xmlns="http://www.w3.org/2000/svg">
<g opacity="0.5">
<path d="M21.3334 19V5C21.3334 3.9 20.4334 3 19.3334 3H5.33337C4.23337 3 3.33337 3.9 3.33337 5V19C3.33337 20.1 4.23337 21 5.33337 21H19.3334C20.4334 21 21.3334 20.1 21.3334 19ZM9.23337 13.98L11.3334 16.51L14.4334 12.52C14.6334 12.26 15.0334 12.26 15.2334 12.53L18.7434 17.21C18.9934 17.54 18.7534 18.01 18.3434 18.01H6.35337C5.93337 18.01 5.70337 17.53 5.96337 17.2L8.45337 14C8.64337 13.74 9.02337 13.73 9.23337 13.98Z" fill="#8C93D6"/>
</g>
</svg>
