<svg width="21" height="20" viewBox="0 0 21 20" fill="none" xmlns="http://www.w3.org/2000/svg">
<path d="M9.66669 5.83268H11.3334V7.49935H9.66669V5.83268ZM10.5 14.166C10.9584 14.166 11.3334 13.791 11.3334 13.3327V9.99935C11.3334 9.54102 10.9584 9.16602 10.5 9.16602C10.0417 9.16602 9.66669 9.54102 9.66669 9.99935V13.3327C9.66669 13.791 10.0417 14.166 10.5 14.166ZM10.5 1.66602C5.90002 1.66602 2.16669 5.39935 2.16669 9.99935C2.16669 14.5993 5.90002 18.3327 10.5 18.3327C15.1 18.3327 18.8334 14.5993 18.8334 9.99935C18.8334 5.39935 15.1 1.66602 10.5 1.66602ZM10.5 16.666C6.82502 16.666 3.83335 13.6743 3.83335 9.99935C3.83335 6.32435 6.82502 3.33268 10.5 3.33268C14.175 3.33268 17.1667 6.32435 17.1667 9.99935C17.1667 13.6743 14.175 16.666 10.5 16.666Z" fill="#8C93D6"/>
</svg>
