<svg width="25" height="24" viewBox="0 0 25 24" fill="none" xmlns="http://www.w3.org/2000/svg">
<path d="M20.3061 7.41L15.4761 2.58C15.1061 2.21 14.5961 2 14.0661 2H6.89612C5.79612 2 4.89612 2.9 4.89612 4V20C4.89612 21.1 5.79612 22 6.89612 22H18.8961C19.9961 22 20.8961 21.1 20.8961 20V8.83C20.8961 8.3 20.6861 7.79 20.3061 7.41ZM14.8961 12C15.4461 12 15.8961 12.45 15.8961 13V16C15.8961 16.55 15.4461 17 14.8961 17H13.8961C13.8961 17.55 13.4461 18 12.8961 18C12.3461 18 11.8961 17.55 11.8961 17H10.8961C10.3461 17 9.89612 16.55 9.89612 16C9.89612 15.45 10.3461 15 10.8961 15H13.8961V14H10.8961C10.3461 14 9.89612 13.55 9.89612 13V10C9.89612 9.45 10.3461 9 10.8961 9H11.8961C11.8961 8.45 12.3461 8 12.8961 8C13.4461 8 13.8961 8.45 13.8961 9H14.8961C15.4461 9 15.8961 9.45 15.8961 10C15.8961 10.55 15.4461 11 14.8961 11H11.8961V12H14.8961Z" fill="#8C93D6"/>
</svg>
