<svg width="31" height="30" viewBox="0 0 31 30" fill="none" xmlns="http://www.w3.org/2000/svg">
<path d="M11.4347 21.312V8.80892C11.4347 7.08975 12.8256 5.68315 14.5604 5.68315H28.6264V4.12027C28.6264 2.4011 27.2198 0.994507 25.5006 0.994507H3.62027C1.88547 0.994507 0.494507 2.4011 0.494507 4.12027V26.0006C0.494507 27.7198 1.88547 29.1264 3.62027 29.1264H25.5006C27.2198 29.1264 28.6264 27.7198 28.6264 26.0006V24.4377H14.5604C12.8256 24.4377 11.4347 23.0311 11.4347 21.312ZM16.1233 8.80892C15.2637 8.80892 14.5604 9.51221 14.5604 10.3718V19.7491C14.5604 20.6087 15.2637 21.312 16.1233 21.312H30.1893V8.80892H16.1233ZM20.812 17.4048C19.5148 17.4048 18.4676 16.3576 18.4676 15.0604C18.4676 13.7633 19.5148 12.7161 20.812 12.7161C22.1092 12.7161 23.1563 13.7633 23.1563 15.0604C23.1563 16.3576 22.1092 17.4048 20.812 17.4048Z" fill="#C5C9EA"/>
<path d="M11.4347 21.312V8.80892C11.4347 7.08975 12.8256 5.68315 14.5604 5.68315H28.6264V4.12027C28.6264 2.4011 27.2198 0.994507 25.5006 0.994507H3.62027C1.88547 0.994507 0.494507 2.4011 0.494507 4.12027V26.0006C0.494507 27.7198 1.88547 29.1264 3.62027 29.1264H25.5006C27.2198 29.1264 28.6264 27.7198 28.6264 26.0006V24.4377H14.5604C12.8256 24.4377 11.4347 23.0311 11.4347 21.312ZM16.1233 8.80892C15.2637 8.80892 14.5604 9.51221 14.5604 10.3718V19.7491C14.5604 20.6087 15.2637 21.312 16.1233 21.312H30.1893V8.80892H16.1233ZM20.812 17.4048C19.5148 17.4048 18.4676 16.3576 18.4676 15.0604C18.4676 13.7633 19.5148 12.7161 20.812 12.7161C22.1092 12.7161 23.1563 13.7633 23.1563 15.0604C23.1563 16.3576 22.1092 17.4048 20.812 17.4048Z" fill="url(#paint0_linear)"/>
<defs>
<linearGradient id="paint0_linear" x1="-7.42769" y1="-10.1612" x2="30.0815" y2="32.5216" gradientUnits="userSpaceOnUse">
<stop stop-color="white"/>
<stop offset="1" stop-color="white" stop-opacity="0"/>
</linearGradient>
</defs>
</svg>
