<svg width="16" height="16" viewBox="0 0 16 16" fill="none" xmlns="http://www.w3.org/2000/svg">
<path d="M8.00005 3.88648L9.64005 5.52648C9.90005 5.78648 10.32 5.78648 10.58 5.52648C10.84 5.26648 10.84 4.84648 10.58 4.58648L8.46672 2.46648C8.20672 2.20648 7.78672 2.20648 7.52672 2.46648L5.41338 4.58648C5.15338 4.84648 5.15338 5.26648 5.41338 5.52648C5.67338 5.78648 6.09338 5.78648 6.35338 5.52648L8.00005 3.88648ZM8.00005 12.1132L6.36005 10.4732C6.10005 10.2132 5.68005 10.2132 5.42005 10.4732C5.16005 10.7332 5.16005 11.1532 5.42005 11.4132L7.53338 13.5332C7.79338 13.7931 8.21338 13.7931 8.47338 13.5332L10.5867 11.4198C10.8467 11.1598 10.8467 10.7398 10.5867 10.4798C10.3267 10.2198 9.90672 10.2198 9.64672 10.4798L8.00005 12.1132Z" fill="#504D85" fill-opacity="0.44"/>
</svg>
