<svg width="18" height="19" viewBox="0 0 18 19" fill="none" xmlns="http://www.w3.org/2000/svg">
<path d="M15 2H3C2.175 2 1.5 2.675 1.5 3.5V15.5C1.5 16.325 2.175 17 3 17H15C15.825 17 16.5 16.325 16.5 15.5V3.5C16.5 2.675 15.825 2 15 2ZM14.25 15.5H3.75C3.3375 15.5 3 15.1625 3 14.75V4.25C3 3.8375 3.3375 3.5 3.75 3.5H14.25C14.6625 3.5 15 3.8375 15 4.25V14.75C15 15.1625 14.6625 15.5 14.25 15.5ZM12 5H9.75C8.925 5 8.25 5.675 8.25 6.5V8.21C7.8 8.4725 7.5 8.945 7.5 9.5C7.5 10.325 8.175 11 9 11C9.825 11 10.5 10.325 10.5 9.5C10.5 8.945 10.2 8.465 9.75 8.21V6.5H12V11.75C12 12.1625 11.6625 12.5 11.25 12.5H6.75C6.3375 12.5 6 12.1625 6 11.75V6.5H6.75C7.1625 6.5 7.5 6.1625 7.5 5.75C7.5 5.3375 7.1625 5 6.75 5H6C5.175 5 4.5 5.675 4.5 6.5V12.5C4.5 13.325 5.175 14 6 14H12C12.825 14 13.5 13.325 13.5 12.5V6.5C13.5 5.675 12.825 5 12 5Z" fill="#1D2038"/>
</svg>
