<svg width="25" height="24" viewBox="0 0 25 24" fill="none" xmlns="http://www.w3.org/2000/svg">
<path d="M16.9308 12H13.9308C13.3808 12 12.9308 12.45 12.9308 13V16C12.9308 16.55 13.3808 17 13.9308 17H16.9308C17.4808 17 17.9308 16.55 17.9308 16V13C17.9308 12.45 17.4808 12 16.9308 12ZM16.9308 2V3H8.93079V2C8.93079 1.45 8.48079 1 7.93079 1C7.38079 1 6.93079 1.45 6.93079 2V3H5.93079C4.82079 3 3.94079 3.9 3.94079 5L3.93079 19C3.93079 20.1 4.82079 21 5.93079 21H19.9308C21.0308 21 21.9308 20.1 21.9308 19V5C21.9308 3.9 21.0308 3 19.9308 3H18.9308V2C18.9308 1.45 18.4808 1 17.9308 1C17.3808 1 16.9308 1.45 16.9308 2ZM18.9308 19H6.93079C6.38079 19 5.93079 18.55 5.93079 18V8H19.9308V18C19.9308 18.55 19.4808 19 18.9308 19Z" fill="#F5A623"/>
</svg>
