<svg width="14" height="8" viewBox="0 0 14 8" fill="none" xmlns="http://www.w3.org/2000/svg">
<path d="M9.90011 7.43339L10.8601 6.47339L7.60678 3.22006L5.41344 5.41339C5.15344 5.67339 4.73344 5.67339 4.47344 5.41339L0.473442 1.40673C0.213442 1.14673 0.213442 0.726728 0.473442 0.466728C0.733442 0.206729 1.15344 0.206729 1.41344 0.466728L4.94011 4.00006L7.13344 1.80673C7.39344 1.54673 7.81344 1.54673 8.07344 1.80673L11.8001 5.52673L12.7601 4.56673C12.9668 4.36006 13.3268 4.50673 13.3268 4.80006V7.66006C13.3268 7.84673 13.1801 7.99339 12.9934 7.99339H10.1334C9.84011 8.00006 9.69344 7.64006 9.90011 7.43339Z" fill="#E16767"/>
</svg>
