<svg width="14" height="8" viewBox="0 0 14 8" fill="none" xmlns="http://www.w3.org/2000/svg">
<path d="M9.90011 0.566667L10.8601 1.52667L7.60677 4.78L5.41344 2.58667C5.15344 2.32667 4.73344 2.32667 4.47344 2.58667L0.473442 6.59333C0.213442 6.85333 0.213442 7.27333 0.473442 7.53333C0.733442 7.79333 1.15344 7.79333 1.41344 7.53333L4.94011 4L7.13344 6.19333C7.39344 6.45333 7.81344 6.45333 8.07344 6.19333L11.8001 2.47333L12.7601 3.43333C12.9668 3.64 13.3268 3.49333 13.3268 3.2V0.333333C13.3334 0.146667 13.1868 0 13.0001 0H10.1401C9.84011 0 9.69344 0.36 9.90011 0.566667Z" fill="#84BDB3"/>
</svg>
