<svg width="25" height="24" viewBox="0 0 25 24" fill="none" xmlns="http://www.w3.org/2000/svg">
<path fill-rule="evenodd" clip-rule="evenodd" d="M17.6354 13.1309C19.0054 14.0609 19.9654 15.3209 19.9654 17.0009V20.0009H22.9654C23.5154 20.0009 23.9654 19.5509 23.9654 19.0009V17.0009C23.9654 14.8209 20.3954 13.5309 17.6354 13.1309Z" fill="#6F6C99"/>
<path d="M9.96539 12C12.1745 12 13.9654 10.2091 13.9654 8C13.9654 5.79086 12.1745 4 9.96539 4C7.75625 4 5.96539 5.79086 5.96539 8C5.96539 10.2091 7.75625 12 9.96539 12Z" fill="#6F6C99"/>
<path fill-rule="evenodd" clip-rule="evenodd" d="M15.9654 12C18.1754 12 19.9654 10.21 19.9654 8C19.9654 5.79 18.1754 4 15.9654 4C15.4954 4 15.0554 4.1 14.6354 4.24C15.4654 5.27 15.9654 6.58 15.9654 8C15.9654 9.42 15.4654 10.73 14.6354 11.76C15.0554 11.9 15.4954 12 15.9654 12Z" fill="#6F6C99"/>
<path fill-rule="evenodd" clip-rule="evenodd" d="M9.96539 13C7.29539 13 1.96539 14.34 1.96539 17V19C1.96539 19.55 2.41539 20 2.96539 20H16.9654C17.5154 20 17.9654 19.55 17.9654 19V17C17.9654 14.34 12.6354 13 9.96539 13Z" fill="#6F6C99"/>
</svg>
