<svg width="25" height="24" viewBox="0 0 25 24" fill="none" xmlns="http://www.w3.org/2000/svg">
<path d="M20 1.60938H8C6.9 1.60938 6 2.50937 6 3.60938V15.6094C6 16.7094 6.9 17.6094 8 17.6094H20C21.1 17.6094 22 16.7094 22 15.6094V3.60938C22 2.50937 21.1 1.60938 20 1.60938ZM11.5 9.10938C11.5 9.93937 10.83 10.6094 10 10.6094H9V11.8594C9 12.2694 8.66 12.6094 8.25 12.6094C7.84 12.6094 7.5 12.2694 7.5 11.8594V7.60938C7.5 7.05937 7.95 6.60938 8.5 6.60938H10C10.83 6.60938 11.5 7.27938 11.5 8.10938V9.10938ZM16.5 11.1094C16.5 11.9394 15.83 12.6094 15 12.6094H13C12.72 12.6094 12.5 12.3894 12.5 12.1094V7.10938C12.5 6.82937 12.72 6.60938 13 6.60938H15C15.83 6.60938 16.5 7.27938 16.5 8.10938V11.1094ZM20.5 7.35938C20.5 7.76937 20.16 8.10938 19.75 8.10938H19V9.10938H19.75C20.16 9.10938 20.5 9.44938 20.5 9.85938C20.5 10.2694 20.16 10.6094 19.75 10.6094H19V11.8594C19 12.2694 18.66 12.6094 18.25 12.6094C17.84 12.6094 17.5 12.2694 17.5 11.8594V7.60938C17.5 7.05937 17.95 6.60938 18.5 6.60938H19.75C20.16 6.60938 20.5 6.94938 20.5 7.35938ZM9 9.10938H10V8.10938H9V9.10938ZM3 5.60938C2.45 5.60938 2 6.05937 2 6.60938V19.6094C2 20.7094 2.9 21.6094 4 21.6094H17C17.55 21.6094 18 21.1594 18 20.6094C18 20.0594 17.55 19.6094 17 19.6094H5C4.45 19.6094 4 19.1594 4 18.6094V6.60938C4 6.05937 3.55 5.60938 3 5.60938ZM14 11.1094H15V8.10938H14V11.1094Z" fill="#8C93D6"/>
</svg>
