<svg width="54" height="54" viewBox="0 0 54 54" fill="none" xmlns="http://www.w3.org/2000/svg">
<rect width="54" height="54" rx="10" fill="#F8F9FC"/>
<rect width="54" height="54" rx="10" fill="#D27D7D"/>
<rect width="54" height="54" rx="10" fill="url(#paint0_linear)" fill-opacity="0.75" style="mix-blend-mode:color-dodge"/>
<path d="M26.5469 20.0215L25.1582 26.7188H26.916C28.5215 26.7188 29.7695 26.3906 30.6602 25.7344C31.5508 25.0664 31.9961 24.1465 31.9961 22.9746C31.9961 22.0137 31.6621 21.2812 30.9941 20.7773C30.3262 20.2734 29.3594 20.0215 28.0938 20.0215H26.5469ZM20.8691 15.5215H28.252C31.7676 15.5215 34.3516 16.0723 36.0039 17.1738C37.668 18.2637 38.5 19.9688 38.5 22.2891C38.5 25.1484 37.5449 27.3984 35.6348 29.0391C33.7246 30.6797 31.0938 31.5 27.7422 31.5C27.332 31.5 26.8281 31.4941 26.2305 31.4824C25.6445 31.459 24.9648 31.4297 24.1914 31.3945L22.2051 40.5H15.5781L20.8691 15.5215Z" fill="white"/>
<defs>
<linearGradient id="paint0_linear" x1="-24" y1="-11" x2="60" y2="82" gradientUnits="userSpaceOnUse">
<stop stop-color="white"/>
<stop offset="1" stop-color="white" stop-opacity="0"/>
</linearGradient>
</defs>
</svg>
