<svg width="20" height="21" viewBox="0 0 20 21" fill="none" xmlns="http://www.w3.org/2000/svg">
<path d="M2.40002 10.4998V14.4998C2.40002 15.3298 3.07002 15.9998 3.90002 15.9998C4.73002 15.9998 5.40002 15.3298 5.40002 14.4998V10.4998C5.40002 9.66982 4.73002 8.99982 3.90002 8.99982C3.07002 8.99982 2.40002 9.66982 2.40002 10.4998ZM8.40002 10.4998V14.4998C8.40002 15.3298 9.07002 15.9998 9.90002 15.9998C10.73 15.9998 11.4 15.3298 11.4 14.4998V10.4998C11.4 9.66982 10.73 8.99982 9.90002 8.99982C9.07002 8.99982 8.40002 9.66982 8.40002 10.4998ZM1.90002 20.9998H17.9C18.73 20.9998 19.4 20.3298 19.4 19.4998C19.4 18.6698 18.73 17.9998 17.9 17.9998H1.90002C1.07002 17.9998 0.400024 18.6698 0.400024 19.4998C0.400024 20.3298 1.07002 20.9998 1.90002 20.9998ZM14.4 10.4998V14.4998C14.4 15.3298 15.07 15.9998 15.9 15.9998C16.73 15.9998 17.4 15.3298 17.4 14.4998V10.4998C17.4 9.66982 16.73 8.99982 15.9 8.99982C15.07 8.99982 14.4 9.66982 14.4 10.4998ZM8.97002 0.489824L1.07002 4.64982C0.660024 4.85982 0.400024 5.28982 0.400024 5.74982C0.400024 6.43982 0.960024 6.99982 1.65002 6.99982H18.16C18.84 6.99982 19.4 6.43982 19.4 5.74982C19.4 5.28982 19.14 4.85982 18.73 4.64982L10.83 0.489824C10.25 0.179824 9.55002 0.179824 8.97002 0.489824Z" fill="#8C93D6"/>
</svg>
