<svg width="25" height="24" viewBox="0 0 25 24" fill="none" xmlns="http://www.w3.org/2000/svg">
<path d="M23.7 8C23.7 9.1 22.8 10 21.7 10C21.52 10 21.35 9.98 21.19 9.93L17.63 13.48C17.68 13.64 17.7 13.82 17.7 14C17.7 15.1 16.8 16 15.7 16C14.6 16 13.7 15.1 13.7 14C13.7 13.82 13.72 13.64 13.77 13.48L11.22 10.93C11.06 10.98 10.88 11 10.7 11C10.52 11 10.34 10.98 10.18 10.93L5.62995 15.49C5.67995 15.65 5.69995 15.82 5.69995 16C5.69995 17.1 4.79995 18 3.69995 18C2.59995 18 1.69995 17.1 1.69995 16C1.69995 14.9 2.59995 14 3.69995 14C3.87995 14 4.04995 14.02 4.20995 14.07L8.76995 9.52C8.71995 9.36 8.69995 9.18 8.69995 9C8.69995 7.9 9.59995 7 10.7 7C11.8 7 12.7 7.9 12.7 9C12.7 9.18 12.68 9.36 12.63 9.52L15.18 12.07C15.34 12.02 15.52 12 15.7 12C15.88 12 16.06 12.02 16.22 12.07L19.77 8.51C19.72 8.35 19.7 8.18 19.7 8C19.7 6.9 20.6 6 21.7 6C22.8 6 23.7 6.9 23.7 8ZM23.7 8C23.7 9.1 22.8 10 21.7 10C21.52 10 21.35 9.98 21.19 9.93L17.63 13.48C17.68 13.64 17.7 13.82 17.7 14C17.7 15.1 16.8 16 15.7 16C14.6 16 13.7 15.1 13.7 14C13.7 13.82 13.72 13.64 13.77 13.48L11.22 10.93C11.06 10.98 10.88 11 10.7 11C10.52 11 10.34 10.98 10.18 10.93L5.62995 15.49C5.67995 15.65 5.69995 15.82 5.69995 16C5.69995 17.1 4.79995 18 3.69995 18C2.59995 18 1.69995 17.1 1.69995 16C1.69995 14.9 2.59995 14 3.69995 14C3.87995 14 4.04995 14.02 4.20995 14.07L8.76995 9.52C8.71995 9.36 8.69995 9.18 8.69995 9C8.69995 7.9 9.59995 7 10.7 7C11.8 7 12.7 7.9 12.7 9C12.7 9.18 12.68 9.36 12.63 9.52L15.18 12.07C15.34 12.02 15.52 12 15.7 12C15.88 12 16.06 12.02 16.22 12.07L19.77 8.51C19.72 8.35 19.7 8.18 19.7 8C19.7 6.9 20.6 6 21.7 6C22.8 6 23.7 6.9 23.7 8Z" fill="#8C93D6"/>
</svg>
