<svg width="24" height="25" viewBox="0 0 24 25" fill="none" xmlns="http://www.w3.org/2000/svg">
<path d="M14 9.5H10C9.45 9.5 9 9.05 9 8.5C9 7.95 9.45 7.5 10 7.5H14C14.55 7.5 15 7.95 15 8.5C15 9.05 14.55 9.5 14 9.5Z" fill="#8C93D6"/>
<path d="M14 12.5H10C9.45 12.5 9 12.05 9 11.5C9 10.95 9.45 10.5 10 10.5H14C14.55 10.5 15 10.95 15 11.5C15 12.05 14.55 12.5 14 12.5Z" fill="#8C93D6"/>
<path d="M19.5 4L18 2.5L16.5 4L15 2.5L13.5 4L12 2.5L10.5 4L9 2.5L7.5 4L6 2.5V16.5H4C3.45 16.5 3 16.95 3 17.5V19.5C3 21.16 4.34 22.5 6 22.5H18C19.66 22.5 21 21.16 21 19.5V2.5L19.5 4ZM15 20.5H6C5.45 20.5 5 20.05 5 19.5V18.5H8H12H15V20.5ZM19 19.5C19 20.05 18.55 20.5 18 20.5C17.45 20.5 17 20.05 17 19.5V17.5C17 16.95 16.55 16.5 16 16.5H14H12H8V5.5H19V19.5Z" fill="#8C93D6"/>
<path d="M17 9.5C17.5523 9.5 18 9.05228 18 8.5C18 7.94772 17.5523 7.5 17 7.5C16.4477 7.5 16 7.94772 16 8.5C16 9.05228 16.4477 9.5 17 9.5Z" fill="#8C93D6"/>
<path d="M17 12.5C17.5523 12.5 18 12.0523 18 11.5C18 10.9477 17.5523 10.5 17 10.5C16.4477 10.5 16 10.9477 16 11.5C16 12.0523 16.4477 12.5 17 12.5Z" fill="#8C93D6"/>
</svg>
