<svg width="54" height="54" viewBox="0 0 54 54" fill="none" xmlns="http://www.w3.org/2000/svg">
<rect width="54" height="54" rx="10" fill="#F8F9FC"/>
<rect width="54" height="54" rx="10" fill="#7D81A5"/>
<rect width="54" height="54" rx="10" fill="url(#paint0_linear)" fill-opacity="0.75" style="mix-blend-mode:color-dodge"/>
<path d="M37.666 16.084L36.1191 20.9531C35.2051 20.543 34.2793 20.2383 33.3418 20.0391C32.4043 19.8281 31.4434 19.7227 30.459 19.7227C28.9707 19.7227 27.8281 19.9453 27.0312 20.3906C26.2461 20.8242 25.8535 21.457 25.8535 22.2891C25.8535 23.1914 26.7441 24.0117 28.5254 24.75C29.2402 25.043 29.8027 25.2891 30.2129 25.4883C32.2871 26.4961 33.6992 27.4805 34.4492 28.4414C35.1992 29.4023 35.5742 30.627 35.5742 32.1152C35.5742 34.8457 34.5312 37.0254 32.4453 38.6543C30.3594 40.2715 27.5293 41.0801 23.9551 41.0801C22.4434 41.0801 20.9902 40.9629 19.5957 40.7285C18.2129 40.5059 16.877 40.166 15.5879 39.709L17.0293 34.5586C18.0723 35.0742 19.0801 35.4609 20.0527 35.7188C21.0371 35.9766 21.998 36.1055 22.9355 36.1055C24.6465 36.1055 25.9941 35.8242 26.9785 35.2617C27.9629 34.6992 28.4551 33.9375 28.4551 32.9766C28.4551 31.7695 27.1484 30.6445 24.5352 29.6016C23.8789 29.3438 23.3691 29.1387 23.0059 28.9863C21.5879 28.3887 20.5332 27.6035 19.8418 26.6309C19.1504 25.6582 18.8047 24.4863 18.8047 23.1152C18.8047 20.7012 19.7715 18.7441 21.7051 17.2441C23.6387 15.7324 26.1758 14.9766 29.3164 14.9766C31.0625 14.9766 32.6387 15.0703 34.0449 15.2578C35.4629 15.4453 36.6699 15.7207 37.666 16.084Z" fill="white"/>
<defs>
<linearGradient id="paint0_linear" x1="-24" y1="-11" x2="60" y2="82" gradientUnits="userSpaceOnUse">
<stop stop-color="white"/>
<stop offset="1" stop-color="white" stop-opacity="0"/>
</linearGradient>
</defs>
</svg>
