<svg width="54" height="54" viewBox="0 0 54 54" fill="none" xmlns="http://www.w3.org/2000/svg">
<rect width="54" height="54" rx="10" fill="#F8F9FC"/>
<rect width="54" height="54" rx="10" fill="#F5A623"/>
<rect width="54" height="54" rx="10" fill="url(#paint0_linear)" fill-opacity="0.75" style="mix-blend-mode:color-dodge"/>
<path fill-rule="evenodd" clip-rule="evenodd" d="M24.8972 14C26.3987 14 27.8947 14 29.3962 14C29.3078 15.0157 29.214 16.0369 29.1312 17.0527C30.8811 17.1796 32.5868 17.7427 34.1214 18.5762C33.459 20.2433 32.7911 21.9104 32.1231 23.5775C30.8314 22.479 29.1312 21.8718 27.4365 21.8938C27.0115 21.9049 26.5698 21.9877 26.2166 22.2306C25.9847 22.3907 25.8136 22.6391 25.7639 22.9151C25.7253 23.1359 25.7363 23.3843 25.8577 23.583C25.9957 23.8038 26.2386 23.9363 26.4815 24.0191C26.9783 24.1958 27.5138 24.2068 28.0327 24.262C29.2526 24.411 30.4781 24.6208 31.6318 25.0569C32.5261 25.3992 33.3817 25.9125 33.9945 26.6633C34.5741 27.3533 34.9108 28.2255 35.0378 29.1197C35.1868 30.152 35.1427 31.2229 34.8225 32.2276C34.5741 33.0335 34.149 33.7843 33.597 34.4191C32.4543 35.7439 30.7762 36.5389 29.0539 36.7431C29.1091 37.8306 29.1754 38.9125 29.2361 40C27.8119 40 26.3932 40 24.9745 40C25.0297 38.9236 25.1015 37.8471 25.1512 36.7707C24.0085 36.7321 22.8769 36.4781 21.8115 36.0752C20.7792 35.6832 19.7966 35.1643 18.8802 34.5571C19.5537 32.8238 20.2272 31.0904 20.9062 29.3516C21.6735 29.9975 22.4904 30.5991 23.3847 31.0573C24.3452 31.5486 25.4106 31.8633 26.4926 31.8743C27.0059 31.8798 27.5359 31.8522 28.0217 31.6756C28.3197 31.5652 28.6123 31.372 28.7448 31.0684C28.8828 30.7482 28.8718 30.3452 28.662 30.0582C28.5129 29.865 28.3032 29.7325 28.0824 29.6386C27.7843 29.5172 27.4752 29.451 27.1605 29.4013C26.0013 29.2136 24.8365 29.059 23.7159 28.6947C22.8161 28.4021 21.9384 27.9936 21.2208 27.3643C20.7681 26.9724 20.3928 26.4921 20.1278 25.9512C19.7304 25.1452 19.5813 24.2344 19.5924 23.3401C19.5924 22.341 19.7966 21.3253 20.2934 20.4476C20.724 19.6637 21.3809 19.0234 22.1206 18.5321C23.0149 17.9414 24.014 17.5384 25.0297 17.2127C24.9856 16.1418 24.9414 15.0709 24.8972 14Z" fill="white"/>
<defs>
<linearGradient id="paint0_linear" x1="-24" y1="-11" x2="60" y2="82" gradientUnits="userSpaceOnUse">
<stop stop-color="white"/>
<stop offset="1" stop-color="white" stop-opacity="0"/>
</linearGradient>
</defs>
</svg>
